HIERARCHY
ROOT Hips
{
	OFFSET -0.001795 -0.223333 0.028219
	CHANNELS 6 Xposition Yposition Zposition Zrotation Yrotation Xrotation 
	JOINT LeftUpLeg
	{
		OFFSET 0.069520 -0.091406 -0.006815
		CHANNELS 3 Zrotation Yrotation Xrotation
		JOINT LeftLeg
		{
			OFFSET 0.034277 -0.375199 -0.004496
			CHANNELS 3 Zrotation Yrotation Xrotation
			JOINT LeftFoot
			{
				OFFSET -0.013596 -0.397961 -0.043693
				CHANNELS 3 Zrotation Yrotation Xrotation
				JOINT LeftToe
				{
					OFFSET 0.026358 -0.055791 0.119288
					CHANNELS 3 Zrotation Yrotation Xrotation
					End Site
					{
						OFFSET 0.000000 0.000000 0.000000
					}
				}
			}
		}
	}
	JOINT RightUpLeg
	{
		OFFSET -0.067670 -0.090522 -0.004320
		CHANNELS 3 Zrotation Yrotation Xrotation
		JOINT RightLeg
		{
			OFFSET -0.038290 -0.382569 -0.008850
			CHANNELS 3 Zrotation Yrotation Xrotation
			JOINT RightFoot
			{
				OFFSET 0.015774 -0.398415 -0.042312
				CHANNELS 3 Zrotation Yrotation Xrotation
				JOINT RightToe
				{
					OFFSET -0.025372 -0.048144 0.123348
					CHANNELS 3 Zrotation Yrotation Xrotation
					End Site
					{
						OFFSET 0.000000 0.000000 0.000000
					}
				}
			}
		}
	}
	JOINT Spine
	{
		OFFSET -0.002533 0.108963 -0.026696
		CHANNELS 3 Zrotation Yrotation Xrotation
		JOINT Spine1
		{
			OFFSET 0.005487 0.135180 0.001092
			CHANNELS 3 Zrotation Yrotation Xrotation
			JOINT Spine2
			{
				OFFSET 0.001457 0.052922 0.025425
				CHANNELS 3 Zrotation Yrotation Xrotation
				JOINT Neck
				{
					OFFSET -0.002778 0.213870 -0.042857
					CHANNELS 3 Zrotation Yrotation Xrotation
					JOINT Head
					{
						OFFSET 0.005152 0.064970 0.051349
						CHANNELS 3 Zrotation Yrotation Xrotation
						End Site
						{
							OFFSET 0.000000 0.000000 0.000000
						}
					}
				}
				JOINT LeftShoulder
				{
					OFFSET 0.078845 0.121749 -0.034090
					CHANNELS 3 Zrotation Yrotation Xrotation
					JOINT LeftArm
					{
						OFFSET 0.090977 0.030469 -0.008868
						CHANNELS 3 Zrotation Yrotation Xrotation
						JOINT LeftForeArm
						{
							OFFSET 0.259612 -0.012772 -0.027456
							CHANNELS 3 Zrotation Yrotation Xrotation
							JOINT LeftHand
							{
								OFFSET 0.249234 0.008986 -0.001171
								CHANNELS 3 Zrotation Yrotation Xrotation
								End Site
								{
									OFFSET 0.000000 0.000000 0.000000
								}
							}
						}
					}
				}
				JOINT RightShoulder
				{
					OFFSET -0.081759 0.118833 -0.038615
					CHANNELS 3 Zrotation Yrotation Xrotation
					JOINT RightArm
					{
						OFFSET -0.096012 0.032551 -0.009143
						CHANNELS 3 Zrotation Yrotation Xrotation
						JOINT RightForeArm
						{
							OFFSET -0.253742 -0.013329 -0.021401
							CHANNELS 3 Zrotation Yrotation Xrotation
							JOINT RightHand
							{
								OFFSET -0.255298 0.007772 -0.005559
								CHANNELS 3 Zrotation Yrotation Xrotation
								End Site
								{
									OFFSET 0.000000 0.000000 0.000000
								}
							}
						}
					}
				}
			}
		}
	}
}
MOTION
Frames: 8
Frame Time: 0.050000
-0.094878 0.985884 0.014244 -1.314312 -1.495874 -12.347332 17.026135 -0.113444 9.966273 -1.453238 0.571197 -19.434601 32.503339 24.966365 102.997340 0.000000 0.000000 0.000000 -12.109510 -0.062278 2.023224 5.883295 -0.353263 -16.941468 -54.717873 -28.116686 113.469118 0.000000 0.000000 0.000000 -1.759878 -0.327185 11.146244 8.869586 -0.000393 -39.717152 2.286978 4.853978 44.792565 -1.844726 3.458803 -69.438643 0.000000 0.000000 0.000000 13.142050 -3.577502 1.052759 -28.391425 -10.718789 -3.538849 127.297520 13.615998 23.556651 0.000000 0.000000 0.000000 -20.855984 9.256830 0.144878 29.478454 7.454069 -2.988032 -125.761962 -17.605018 38.551660 0.000000 0.000000 0.000000 
-0.095818 0.980306 0.016476 -1.629104 -1.044016 -13.021290 17.546720 -0.247013 11.358286 -1.830108 0.532961 -19.664032 33.182653 25.635987 99.750251 0.000000 0.000000 0.000000 -12.143625 -0.100449 2.719688 6.566558 -0.369881 -15.995062 -53.587908 -29.573494 109.611802 0.000000 0.000000 0.000000 -1.372908 -0.371827 11.646520 8.736637 -0.114928 -38.864815 2.173212 4.520955 43.771271 -2.936225 3.758845 -66.209387 0.000000 0.000000 0.000000 11.789985 -3.691738 1.133861 -28.049897 -11.986620 -3.257046 128.396118 11.981793 21.079515 0.000000 0.000000 0.000000 -19.525004 9.528590 0.410626 27.974231 8.620985 -2.650429 -127.146480 -15.796258 35.947649 0.000000 0.000000 0.000000 
-0.096844 0.972677 0.018792 -1.760226 -0.526791 -13.274777 18.267078 -0.357488 11.459073 -3.033026 0.439807 -17.896045 32.643369 26.773667 93.019619 0.000000 0.000000 0.000000 -12.610903 -0.117026 2.969261 7.422831 -0.431796 -13.775493 -52.010664 -31.965862 102.808626 0.000000 0.000000 0.000000 -1.098875 -0.380171 11.168757 8.621906 -0.384093 -36.391273 1.992977 4.448469 41.813616 -2.494004 3.798237 -61.258313 0.000000 0.000000 0.000000 10.317842 -4.799155 1.507204 -27.915735 -12.359600 -3.093579 128.663059 11.409069 19.928421 0.000000 0.000000 0.000000 -17.870243 10.345892 0.821016 27.633151 8.779803 -2.544479 -129.735407 -15.048526 36.300844 0.000000 0.000000 0.000000 
-0.097714 0.961799 0.020734 -2.076645 -0.103999 -13.774216 19.209940 -0.559093 12.676588 -4.089707 0.373026 -18.130483 34.594717 28.151371 89.184063 0.000000 0.000000 0.000000 -12.538151 -0.148418 3.612028 7.904026 -0.495551 -12.234347 -51.439676 -33.906864 97.563205 0.000000 0.000000 0.000000 -1.172111 -0.387890 11.322870 9.078229 -0.584417 -35.391125 1.843674 3.714569 41.195335 -3.455880 4.112468 -58.903713 0.000000 0.000000 0.000000 7.684662 -5.103273 1.605108 -27.250175 -12.644375 -2.997459 130.620375 10.998971 20.234885 0.000000 0.000000 0.000000 -16.442341 11.002651 1.227941 26.694741 10.188233 -2.280530 -131.836114 -13.924880 34.923379 0.000000 0.000000 0.000000 
-0.098221 0.948086 0.022285 -2.321472 0.899600 -13.664911 20.143130 -0.733239 12.139335 -5.823424 0.301435 -16.179417 35.195497 30.137638 81.227587 0.000000 0.000000 0.000000 -12.659156 -0.187768 3.178569 8.241302 -0.646621 -8.850094 -49.893772 -36.610429 89.342521 0.000000 0.000000 0.000000 -1.165835 -0.382590 10.821621 8.924374 -0.796092 -33.306506 2.025741 3.212347 39.770051 -4.301377 4.546824 -54.469503 0.000000 0.000000 0.000000 5.638904 -6.210181 1.987979 -28.051655 -13.487511 -2.870564 132.707571 9.704138 18.764946 0.000000 0.000000 0.000000 -14.925248 11.637569 1.587193 26.758577 9.882509 -2.339247 -133.296052 -12.357538 33.014008 0.000000 0.000000 0.000000 
-0.098344 0.933419 0.024422 -2.607743 1.788596 -14.645955 21.174678 -0.986570 12.962807 -7.574625 0.236129 -15.403316 37.471762 32.323859 76.124809 0.000000 0.000000 0.000000 -12.932284 -0.258261 3.435420 9.522090 -0.865188 -5.679652 -50.849134 -39.827451 82.260581 0.000000 0.000000 0.000000 -1.128933 -0.409817 11.184595 9.361368 -0.948962 -32.884389 1.782309 2.941628 39.869612 -4.547727 4.752298 -53.098314 0.000000 0.000000 0.000000 2.898411 -7.205285 2.360312 -28.824855 -14.469894 -2.815198 135.815505 8.635253 17.937213 0.000000 0.000000 0.000000 -13.025271 12.323375 1.950942 26.553351 9.544576 -2.455817 -134.456471 -9.914170 28.671488 0.000000 0.000000 0.000000 
-0.098381 0.917292 0.027287 -3.045109 2.604059 -14.568590 22.357543 -1.179238 12.441515 -9.585196 0.246167 -13.580312 38.555461 35.067702 68.042823 0.000000 0.000000 0.000000 -13.884848 -0.303337 2.908551 11.895855 -1.301549 -1.962814 -50.472793 -43.385274 72.951877 0.000000 0.000000 0.000000 -0.806813 -0.413010 10.608976 9.556697 -1.148598 -31.464829 1.324703 2.908456 38.729469 -3.746490 4.684760 -48.479531 0.000000 0.000000 0.000000 0.191101 -7.914215 2.663275 -29.903269 -14.693639 -2.824332 138.983275 6.592578 14.682300 0.000000 0.000000 0.000000 -11.094367 12.945745 2.379886 27.364049 8.399962 -2.735010 -135.508796 -7.319352 24.116423 0.000000 0.000000 0.000000 
-0.098642 0.898476 0.031556 -3.491023 3.270257 -15.405242 24.102133 -1.531633 13.151232 -11.854091 0.294265 -11.963537 38.520530 38.252261 57.415220 0.000000 0.000000 0.000000 -15.296274 -0.388574 2.807672 15.173927 -2.151452 2.896425 -46.768858 -47.218516 58.271294 0.000000 0.000000 0.000000 -0.925109 -0.414300 10.574498 10.793650 -1.539400 -30.500459 0.614151 3.244240 38.264118 -1.186588 3.765783 -43.620714 0.000000 0.000000 0.000000 -2.793675 -8.274999 2.829872 -29.904297 -14.874227 -2.806470 140.838718 3.150188 6.525157 0.000000 0.000000 0.000000 -8.386413 13.177956 2.828562 27.032613 7.684679 -2.945925 -136.474835 -4.285442 18.114143 0.000000 0.000000 0.000000 
